<?xml version="1.0" encoding="UTF-8"?>
<svg width="275px" height="46px" viewBox="0 0 275 46" version="1.1" xmlns="http://www.w3.org/2000/svg" xmlns:xlink="http://www.w3.org/1999/xlink">
    <!-- Generator: Sketch 44.1 (41455) - http://www.bohemiancoding.com/sketch -->
    <title>CreditorWatch</title>
    <desc>CreditorWatch: Helping you get paid</desc>
    <defs>
        <polygon id="path-1" points="6.89199236 45.9909502 0 45.9909502 0 0.481411765 6.89199236 0.481411765 13.7839847 0.481411765 13.7839847 45.9909502 6.89199236 45.9909502"></polygon>
        <polygon id="path-3" points="13.8742303 0.481411765 0.0900054585 0.481411765 0.0900054585 45.990771 13.8742303 45.990771"></polygon>
    </defs>
    <g id="Draft-2---Coloured-Desktop" stroke="none" stroke-width="1" fill="none" fill-rule="evenodd">
        <g id="LP7---Signin-CTA-Wide-1" transform="translate(-259.000000, -88.000000)">
            <g id="CW-Logo-Placeholder-Copy" transform="translate(259.000000, 88.000000)">
                <polygon id="Fill-1" fill="#000000" points="196.401698 35.9176181 193.657702 35.9176181 188.689088 20.8558805 183.388433 35.9176181 180.645038 35.9176181 173.451206 14.1238805 177.284394 13.3241158 182.962724 31.4009484 187.601097 17.5606588 186.46387 14.1238805 190.297058 13.3241158 195.975388 31.4009484 201.89149 13.747591 204.209176 13.747591"></polygon>
                <g id="Group-32" transform="translate(0.000000, 0.116112)">
                    <path d="M219.684471,36.1782733 C218.217003,36.4619837 217.649591,33.9665267 217.649591,32.7904724 L217.649591,24.1758299 C214.242713,24.3639747 208.942658,26.1522462 208.942658,30.2472326 C208.942658,32.6955041 211.402647,33.9665267 213.579831,33.9665267 C214.810126,33.9665267 216.03982,33.7305991 217.175846,33.307124 L216.702702,35.3791059 C214.999263,36.0385086 213.058652,36.4147982 211.261545,36.4147982 C207.854067,36.4147982 204.77863,34.5321557 204.77863,30.8600471 C204.77863,24.9290063 212.917549,22.7160652 217.649591,22.3397756 L217.649591,20.1746172 C217.649591,16.9731692 216.37066,15.5140018 213.154121,15.5140018 C210.976337,15.5140018 208.706086,16.0324452 206.624973,16.6912507 L206.954012,14.6664543 C209.084361,13.8195041 211.402647,13.2078842 213.768368,13.2078842 C218.547844,13.2078842 221.529612,15.2786715 221.529612,20.268391 L221.529612,31.331305 C221.529612,32.7904724 221.434743,34.8612597 223.043914,35.5200652 L219.684471,36.1782733 Z" id="Fill-2" fill="#000000"></path>
                    <path d="M236.577576,35.8015059 C235.11071,36.084619 233.548974,36.2727638 232.082107,36.2727638 C228.155852,36.2727638 226.829487,34.2497593 226.829487,30.5298679 L226.829487,15.1850172 L224.227194,15.1850172 L224.227194,13.6314787 L226.829487,13.6314787 L226.829487,8.35924344 L230.662675,7.55888145 L230.662675,13.6314787 L235.631288,13.6314787 L235.631288,15.1850172 L230.662675,15.1850172 L230.662675,29.5419584 C230.662675,32.554067 231.183253,33.9200579 234.401594,33.9200579 C235.299847,33.9200579 236.246736,33.8250896 237.144989,33.6841303 L236.577576,35.8015059 Z" id="Fill-4" fill="#000000"></path>
                    <path d="M253.499503,35.5670118 C251.558291,36.1314462 249.477778,36.2730027 247.441698,36.2730027 C240.863914,36.2730027 237.17363,30.8598081 237.17363,24.7406226 C237.17363,18.6208398 240.911949,13.2548308 247.441698,13.2548308 C249.477778,13.2548308 251.085147,13.4429756 253.025759,13.961419 L253.593171,16.0793919 C251.985202,15.702505 250.944645,15.6087312 249.334874,15.6087312 C243.514241,15.6087312 241.24399,19.5155729 241.24399,24.8343964 C241.24399,30.1060344 243.655944,33.9196995 249.334874,33.9196995 C250.944645,33.9196995 252.505781,33.872514 254.067516,33.4484416 L253.499503,35.5670118 Z" id="Fill-6" fill="#000000"></path>
                    <path d="M270.960802,35.8015059 L270.960802,21.445162 C270.960802,18.6677864 269.824176,15.6084923 266.512167,15.6084923 C264.667025,15.6084923 262.25387,17.208619 260.929307,18.4796416 L260.929307,35.8015059 L257.094918,35.8015059 L257.094918,2.47598552 L260.929307,1.67502624 L260.881272,16.267895 C263.011021,14.338067 265.614514,13.3017774 268.499612,13.3017774 C272.853379,13.3017774 274.794591,16.5026281 274.794591,20.5038407 L274.794591,35.8015059 L270.960802,35.8015059 Z" id="Fill-8" fill="#000000"></path>
                    <path d="M29.6987391,35.3272615 C27.2669705,35.9908452 24.7877675,36.2757502 22.3085644,36.2757502 C15.6335098,36.2757502 11.9618395,30.7741575 11.9618395,24.6083837 C11.9618395,18.4903928 15.7289793,13.0359855 22.3085644,13.0359855 C25.0735753,13.0359855 26.8376583,13.2253249 29.2219924,13.9844742 L29.8890775,16.3556959 C28.2210644,15.8342661 26.9811627,15.6443294 25.2645142,15.6443294 C19.5429531,15.6443294 17.3975928,19.486067 17.3975928,24.703352 C17.3975928,29.8728543 19.6384225,33.6674063 25.2645142,33.6674063 C26.9811627,33.6674063 28.7452456,33.4296869 30.3664247,32.9554425 L29.6987391,35.3272615 Z" id="Fill-10" fill="#EA4B41"></path>
                    <path d="M44.9963646,17.8260923 C44.4241485,17.351848 43.613559,17.1147258 42.8510044,17.1147258 C40.8959825,17.1619113 39.1793341,18.7273955 38.0355022,20.1501285 L38.0355022,35.8013864 L32.9335917,35.8013864 L32.8861572,13.8893864 L38.0355022,12.9408977 L38.0829367,16.9725719 C39.6086463,15.1699656 41.4201638,12.9880833 44.0428712,12.9408977 C44.8054258,12.9408977 45.6160153,13.1308344 46.3311354,13.5101104 L44.9963646,17.8260923 Z" id="Fill-12" fill="#EA4B41"></path>
                    <path d="M61.3005022,20.9562842 C61.3005022,18.3951258 60.5853821,14.9326643 57.343024,14.9326643 C54.0057969,14.8854787 52.5749563,18.6800308 52.4320524,21.5254968 L61.3005022,21.5254968 L61.3005022,20.9562842 Z M52.4320524,23.3752887 C52.4320524,23.3752887 52.3846179,24.3237774 52.3846179,24.7502389 C52.3846179,30.2046462 54.3870742,33.6671077 60.2515393,33.6671077 C61.9675873,33.6671077 63.6842358,33.3828 65.3528493,32.9557412 L64.6857642,35.3275602 C62.2539956,35.9911439 59.7267576,36.2754516 57.2001201,36.2754516 C50.477631,36.2754516 46.9488646,31.8179131 46.9488646,25.3672344 C46.9968996,18.7272163 50.6679694,13.0834697 57.8197707,13.0834697 C64.3038865,13.0834697 66.640786,17.4944199 66.6882205,23.3752887 L52.4320524,23.3752887 Z" id="Fill-14" fill="#EA4B41"></path>
                    <path d="M84.8984443,35.8015059 L84.9464793,16.4984471 C83.6111081,15.6915149 82.0853985,15.2650534 80.5596889,15.2650534 C76.0780295,15.2650534 74.7906932,20.9088 74.7906932,24.4662299 C74.7906932,28.5922751 76.0780295,33.9988995 81.1793395,33.951714 C82.2763373,33.951714 83.3727347,33.7623747 84.4216976,33.3825014 L83.8969159,35.5166009 C82.3712063,36.0864109 80.7506277,36.3707186 79.1768832,36.3707186 C72.597298,36.4179041 69.3075055,31.4377412 69.3075055,25.3197502 C69.260071,19.106791 72.740202,13.083171 79.6061954,13.083171 C81.3702784,13.083171 83.3727347,13.5574154 84.9464793,14.4109357 L84.9464793,2.26932489 L90.0477893,1.3208362 L90.0477893,35.8015059 L84.8984443,35.8015059 Z" id="Fill-16" fill="#EA4B41"></path>
                    <path d="M95.0797489,35.7536633 L95.0797489,13.8422606 L100.181659,12.8937719 L100.181659,35.7536633 L95.0797489,35.7536633 Z M97.6063865,8.95706606 C96.0332424,8.95706606 94.6504367,7.58151855 94.6504367,6.01663167 C94.6504367,4.40396199 95.9377729,2.88626063 97.558952,2.88626063 C99.180131,2.88626063 100.658406,4.21402534 100.658406,5.82669502 C100.658406,7.48655023 99.3230349,8.90988054 97.6063865,8.95706606 L97.6063865,8.95706606 Z" id="Fill-18" fill="#EA4B41"></path>
                    <path d="M116.576463,35.5646824 C114.669476,35.9439584 112.761889,36.2754516 110.854902,36.2754516 C106.897424,36.2754516 105.515218,34.1891348 105.515218,30.4895511 L105.562653,15.2647548 L102.797041,15.2647548 L102.797041,13.4627457 L105.562653,13.4627457 L105.515218,8.19827511 L110.663963,7.24978643 L110.663963,13.4627457 L115.956812,13.4627457 L115.956812,15.2647548 L110.663963,15.2647548 L110.663963,29.0190353 C110.663963,31.960067 111.045841,33.4299855 114.383068,33.4299855 C115.289127,33.4299855 116.195186,33.3356145 117.148679,33.1928633 L116.576463,35.5646824 Z" id="Fill-20" fill="#EA4B41"></path>
                    <path d="M128.637074,14.9805068 C123.917041,14.9805068 122.915513,21.0041267 122.915513,24.6081448 C122.915513,28.1649774 123.869007,34.5684706 128.589039,34.5684706 C133.166168,34.5684706 134.215731,28.4498824 134.215731,24.9402353 C134.215731,21.4305882 133.309672,14.9805068 128.637074,14.9805068 M128.589039,36.3226968 C121.723646,36.3226968 117.57583,31.6752217 117.57583,24.9880181 C117.57583,18.3951855 122.009454,13.0357466 128.828013,13.0357466 C135.503068,13.0357466 139.746354,18.0159095 139.746354,24.465991 C139.746354,31.2481629 135.645972,36.3710769 128.589039,36.3226968" id="Fill-22" fill="#EA4B41"></path>
                    <path d="M155.119934,17.8260923 C154.548319,17.351848 153.737129,17.1147258 152.974574,17.1147258 C151.020153,17.1619113 149.303504,18.7273955 148.159072,20.1501285 L148.159072,35.8013864 L143.057762,35.8013864 L143.009727,13.8893864 L148.159072,12.9408977 L148.206507,16.9725719 C149.732216,15.1699656 151.544334,12.9880833 154.166441,12.9408977 C154.929596,12.9408977 155.740186,13.1308344 156.455306,13.5101104 L155.119934,17.8260923 Z" id="Fill-24" fill="#EA4B41"></path>
                    <g id="Group-28">
                        <mask id="mask-2" fill="white">
                            <use xlink:href="#path-1"></use>
                        </mask>
                        <g id="Clip-27"></g>
                        <path d="M13.1937555,45.9909502 C4.93414847,42.0960543 -0.000240174673,32.1190045 -0.000240174673,23.2093032 C-0.000240174673,14.2464434 4.34451965,4.00240724 13.1937555,0.481411765 L13.7839847,1.12110407 C6.06056769,7.524 5.73873362,13.765629 5.73873362,23.1029864 C5.73873362,31.1585701 6.86515284,40.0688688 13.7839847,45.3506606 L13.1937555,45.9909502 Z" id="Fill-26" fill="#EA4B41" mask="url(#mask-2)"></path>
                    </g>
                    <g id="Group-31" transform="translate(155.513100, 0.000000)">
                        <mask id="mask-4" fill="white">
                            <use xlink:href="#path-3"></use>
                        </mask>
                        <g id="Clip-30"></g>
                        <path d="M0.0900054585,45.3504814 C7.00883734,40.0686896 8.13465611,31.158391 8.13465611,23.1028072 C8.13465611,13.7660471 7.81342249,7.52382081 0.0900054585,1.12152217 L0.679634279,0.481232579 C9.53007096,4.00222805 13.8742303,14.2462643 13.8742303,23.209124 C13.8742303,32.1194226 8.93924127,42.0964724 0.679634279,45.990771 L0.0900054585,45.3504814 Z" id="Fill-29" fill="#EA4B41" mask="url(#mask-4)"></path>
                    </g>
                </g>
            </g>
        </g>
    </g>
</svg>